<mxfile host="app.diagrams.net" modified="2020-10-12T10:57:54.982Z" agent="5.0 (Windows NT 10.0; Win64; x64) AppleWebKit/537.36 (KHTML, like Gecko) Chrome/85.0.4183.121 Safari/537.36" etag="cFdAbAns4G-HAJ7AmxWm" version="13.7.9" type="github">
  <diagram name="Page-1" id="f1b7ffb7-ca1e-a977-7cf5-a751b3c06c05">
    <mxGraphModel dx="1673" dy="934" grid="1" gridSize="10" guides="1" tooltips="1" connect="1" arrows="1" fold="1" page="1" pageScale="1" pageWidth="826" pageHeight="1169" background="#ffffff" math="0" shadow="0">
      <root>
        <mxCell id="0" />
        <mxCell id="1" parent="0" />
        <mxCell id="tzb5yaRrSsXEz6ic2CVl-61" value="" style="rounded=0;whiteSpace=wrap;html=1;" vertex="1" parent="1">
          <mxGeometry x="50" y="40" width="590" height="440" as="geometry" />
        </mxCell>
        <mxCell id="tzb5yaRrSsXEz6ic2CVl-62" value="master" style="text;html=1;strokeColor=none;fillColor=none;align=center;verticalAlign=middle;whiteSpace=wrap;rounded=0;" vertex="1" parent="1">
          <mxGeometry x="50" y="40" width="40" height="20" as="geometry" />
        </mxCell>
        <mxCell id="tzb5yaRrSsXEz6ic2CVl-63" value="Start quiznight" style="rounded=1;whiteSpace=wrap;html=1;" vertex="1" parent="1">
          <mxGeometry x="285" y="230" width="120" height="60" as="geometry" />
        </mxCell>
        <mxCell id="tzb5yaRrSsXEz6ic2CVl-64" value="" style="rounded=0;whiteSpace=wrap;html=1;" vertex="1" parent="1">
          <mxGeometry x="50" y="500" width="590" height="440" as="geometry" />
        </mxCell>
        <mxCell id="tzb5yaRrSsXEz6ic2CVl-65" value="master" style="text;html=1;strokeColor=none;fillColor=none;align=center;verticalAlign=middle;whiteSpace=wrap;rounded=0;" vertex="1" parent="1">
          <mxGeometry x="50" y="500" width="40" height="20" as="geometry" />
        </mxCell>
        <mxCell id="tzb5yaRrSsXEz6ic2CVl-67" value="" style="rounded=0;whiteSpace=wrap;html=1;" vertex="1" parent="1">
          <mxGeometry x="80" y="580" width="140" height="290" as="geometry" />
        </mxCell>
        <mxCell id="tzb5yaRrSsXEz6ic2CVl-68" value="Wachtrij" style="text;html=1;strokeColor=none;fillColor=none;align=center;verticalAlign=middle;whiteSpace=wrap;rounded=0;" vertex="1" parent="1">
          <mxGeometry x="80" y="560" width="60" height="20" as="geometry" />
        </mxCell>
        <mxCell id="tzb5yaRrSsXEz6ic2CVl-69" value="Team1" style="text;html=1;strokeColor=none;fillColor=none;align=center;verticalAlign=middle;whiteSpace=wrap;rounded=0;" vertex="1" parent="1">
          <mxGeometry x="80" y="580" width="140" height="20" as="geometry" />
        </mxCell>
        <mxCell id="tzb5yaRrSsXEz6ic2CVl-70" value="Team2" style="text;html=1;strokeColor=#666666;fillColor=#f5f5f5;align=center;verticalAlign=middle;whiteSpace=wrap;rounded=0;fontColor=#333333;" vertex="1" parent="1">
          <mxGeometry x="80" y="600" width="140" height="20" as="geometry" />
        </mxCell>
        <mxCell id="tzb5yaRrSsXEz6ic2CVl-71" value="Toevoegen" style="rounded=1;whiteSpace=wrap;html=1;fillColor=#d5e8d4;strokeColor=#82b366;" vertex="1" parent="1">
          <mxGeometry x="230" y="820" width="70" height="20" as="geometry" />
        </mxCell>
        <mxCell id="tzb5yaRrSsXEz6ic2CVl-72" value="Afwijzen" style="rounded=1;whiteSpace=wrap;html=1;fillColor=#f8cecc;strokeColor=#b85450;" vertex="1" parent="1">
          <mxGeometry x="230" y="850" width="70" height="20" as="geometry" />
        </mxCell>
        <mxCell id="tzb5yaRrSsXEz6ic2CVl-73" value="" style="rounded=0;whiteSpace=wrap;html=1;" vertex="1" parent="1">
          <mxGeometry x="480" y="580" width="120" height="290" as="geometry" />
        </mxCell>
        <mxCell id="tzb5yaRrSsXEz6ic2CVl-74" value="Toegevoegde teams" style="text;html=1;strokeColor=none;fillColor=none;align=center;verticalAlign=middle;whiteSpace=wrap;rounded=0;" vertex="1" parent="1">
          <mxGeometry x="480" y="560" width="120" height="20" as="geometry" />
        </mxCell>
        <mxCell id="tzb5yaRrSsXEz6ic2CVl-75" value="Start quiznight" style="rounded=1;whiteSpace=wrap;html=1;fillColor=#d5e8d4;strokeColor=#82b366;" vertex="1" parent="1">
          <mxGeometry x="495" y="880" width="90" height="30" as="geometry" />
        </mxCell>
        <mxCell id="tzb5yaRrSsXEz6ic2CVl-76" value="Accepted team 1" style="text;html=1;strokeColor=none;fillColor=none;align=center;verticalAlign=middle;whiteSpace=wrap;rounded=0;" vertex="1" parent="1">
          <mxGeometry x="480" y="585" width="100" height="20" as="geometry" />
        </mxCell>
        <mxCell id="tzb5yaRrSsXEz6ic2CVl-77" value="&lt;font style=&quot;font-size: 32px&quot;&gt;Quizzer&lt;/font&gt;" style="text;html=1;strokeColor=none;fillColor=none;align=center;verticalAlign=middle;whiteSpace=wrap;rounded=0;" vertex="1" parent="1">
          <mxGeometry x="252.5" y="110" width="185" height="40" as="geometry" />
        </mxCell>
        <mxCell id="tzb5yaRrSsXEz6ic2CVl-78" value="&lt;font style=&quot;font-size: 24px&quot;&gt;Quiznight&lt;/font&gt;" style="text;html=1;strokeColor=none;fillColor=none;align=center;verticalAlign=middle;whiteSpace=wrap;rounded=0;" vertex="1" parent="1">
          <mxGeometry x="252.5" y="530" width="185" height="40" as="geometry" />
        </mxCell>
        <mxCell id="tzb5yaRrSsXEz6ic2CVl-81" value="" style="rounded=0;whiteSpace=wrap;html=1;" vertex="1" parent="1">
          <mxGeometry x="50" y="960" width="590" height="440" as="geometry" />
        </mxCell>
        <mxCell id="tzb5yaRrSsXEz6ic2CVl-82" value="master" style="text;html=1;strokeColor=none;fillColor=none;align=center;verticalAlign=middle;whiteSpace=wrap;rounded=0;" vertex="1" parent="1">
          <mxGeometry x="50" y="960" width="40" height="20" as="geometry" />
        </mxCell>
        <mxCell id="tzb5yaRrSsXEz6ic2CVl-83" value="" style="rounded=0;whiteSpace=wrap;html=1;" vertex="1" parent="1">
          <mxGeometry x="80" y="1040" width="140" height="290" as="geometry" />
        </mxCell>
        <mxCell id="tzb5yaRrSsXEz6ic2CVl-84" value="Categorie" style="text;html=1;strokeColor=none;fillColor=none;align=center;verticalAlign=middle;whiteSpace=wrap;rounded=0;" vertex="1" parent="1">
          <mxGeometry x="80" y="1020" width="60" height="20" as="geometry" />
        </mxCell>
        <mxCell id="tzb5yaRrSsXEz6ic2CVl-85" value="Sport" style="text;html=1;strokeColor=none;fillColor=none;align=center;verticalAlign=middle;whiteSpace=wrap;rounded=0;" vertex="1" parent="1">
          <mxGeometry x="80" y="1040" width="140" height="20" as="geometry" />
        </mxCell>
        <mxCell id="tzb5yaRrSsXEz6ic2CVl-86" value="Cultuur" style="text;html=1;strokeColor=#666666;fillColor=#f5f5f5;align=center;verticalAlign=middle;whiteSpace=wrap;rounded=0;fontColor=#333333;" vertex="1" parent="1">
          <mxGeometry x="80" y="1060" width="140" height="20" as="geometry" />
        </mxCell>
        <mxCell id="tzb5yaRrSsXEz6ic2CVl-87" value="Toevoegen" style="rounded=1;whiteSpace=wrap;html=1;fillColor=#d5e8d4;strokeColor=#82b366;" vertex="1" parent="1">
          <mxGeometry x="230" y="1280" width="70" height="20" as="geometry" />
        </mxCell>
        <mxCell id="tzb5yaRrSsXEz6ic2CVl-88" value="Afwijzen" style="rounded=1;whiteSpace=wrap;html=1;fillColor=#f8cecc;strokeColor=#b85450;" vertex="1" parent="1">
          <mxGeometry x="230" y="1310" width="70" height="20" as="geometry" />
        </mxCell>
        <mxCell id="tzb5yaRrSsXEz6ic2CVl-89" value="" style="rounded=0;whiteSpace=wrap;html=1;" vertex="1" parent="1">
          <mxGeometry x="460" y="1040" width="140" height="290" as="geometry" />
        </mxCell>
        <mxCell id="tzb5yaRrSsXEz6ic2CVl-90" value="Toegevoegde categorieën" style="text;html=1;strokeColor=none;fillColor=none;align=center;verticalAlign=middle;whiteSpace=wrap;rounded=0;" vertex="1" parent="1">
          <mxGeometry x="450" y="1020" width="150" height="20" as="geometry" />
        </mxCell>
        <mxCell id="tzb5yaRrSsXEz6ic2CVl-91" value="Start quizround" style="rounded=1;whiteSpace=wrap;html=1;fillColor=#d5e8d4;strokeColor=#82b366;" vertex="1" parent="1">
          <mxGeometry x="495" y="1340" width="90" height="30" as="geometry" />
        </mxCell>
        <mxCell id="tzb5yaRrSsXEz6ic2CVl-92" value="Hobbies" style="text;html=1;strokeColor=none;fillColor=none;align=center;verticalAlign=middle;whiteSpace=wrap;rounded=0;" vertex="1" parent="1">
          <mxGeometry x="460" y="1040" width="100" height="20" as="geometry" />
        </mxCell>
        <mxCell id="tzb5yaRrSsXEz6ic2CVl-93" value="&lt;font style=&quot;font-size: 24px&quot;&gt;Categorieën&lt;/font&gt;" style="text;html=1;strokeColor=none;fillColor=none;align=center;verticalAlign=middle;whiteSpace=wrap;rounded=0;" vertex="1" parent="1">
          <mxGeometry x="252.5" y="990" width="185" height="40" as="geometry" />
        </mxCell>
        <mxCell id="tzb5yaRrSsXEz6ic2CVl-94" value="-" style="rounded=1;whiteSpace=wrap;html=1;fillColor=#f8cecc;strokeColor=#b85450;" vertex="1" parent="1">
          <mxGeometry x="560" y="1040" width="40" height="20" as="geometry" />
        </mxCell>
        <mxCell id="tzb5yaRrSsXEz6ic2CVl-95" value="" style="rounded=0;whiteSpace=wrap;html=1;" vertex="1" parent="1">
          <mxGeometry x="50" y="1410" width="590" height="440" as="geometry" />
        </mxCell>
        <mxCell id="tzb5yaRrSsXEz6ic2CVl-96" value="master" style="text;html=1;strokeColor=none;fillColor=none;align=center;verticalAlign=middle;whiteSpace=wrap;rounded=0;" vertex="1" parent="1">
          <mxGeometry x="50" y="1410" width="40" height="20" as="geometry" />
        </mxCell>
        <mxCell id="tzb5yaRrSsXEz6ic2CVl-97" value="&lt;font style=&quot;font-size: 24px&quot;&gt;Kies vraag&lt;/font&gt;" style="text;html=1;strokeColor=none;fillColor=none;align=center;verticalAlign=middle;whiteSpace=wrap;rounded=0;" vertex="1" parent="1">
          <mxGeometry x="252.5" y="1440" width="185" height="40" as="geometry" />
        </mxCell>
        <mxCell id="tzb5yaRrSsXEz6ic2CVl-98" value="" style="rounded=0;whiteSpace=wrap;html=1;" vertex="1" parent="1">
          <mxGeometry x="80" y="1490" width="540" height="310" as="geometry" />
        </mxCell>
        <mxCell id="tzb5yaRrSsXEz6ic2CVl-99" value="Vraag 1/12" style="text;html=1;strokeColor=none;fillColor=none;align=center;verticalAlign=middle;whiteSpace=wrap;rounded=0;" vertex="1" parent="1">
          <mxGeometry x="542.5" y="1460" width="75" height="20" as="geometry" />
        </mxCell>
        <mxCell id="tzb5yaRrSsXEz6ic2CVl-100" value="Quizronde 1" style="text;html=1;strokeColor=none;fillColor=none;align=center;verticalAlign=middle;whiteSpace=wrap;rounded=0;" vertex="1" parent="1">
          <mxGeometry x="542.5" y="1440" width="75" height="20" as="geometry" />
        </mxCell>
        <mxCell id="tzb5yaRrSsXEz6ic2CVl-101" value="564125" style="text;html=1;strokeColor=none;fillColor=none;align=center;verticalAlign=middle;whiteSpace=wrap;rounded=0;" vertex="1" parent="1">
          <mxGeometry x="542.5" y="1420" width="75" height="20" as="geometry" />
        </mxCell>
        <mxCell id="tzb5yaRrSsXEz6ic2CVl-102" value="564125" style="text;html=1;strokeColor=none;fillColor=none;align=center;verticalAlign=middle;whiteSpace=wrap;rounded=0;" vertex="1" parent="1">
          <mxGeometry x="530" y="510" width="75" height="20" as="geometry" />
        </mxCell>
        <mxCell id="tzb5yaRrSsXEz6ic2CVl-103" value="564125" style="text;html=1;strokeColor=none;fillColor=none;align=center;verticalAlign=middle;whiteSpace=wrap;rounded=0;" vertex="1" parent="1">
          <mxGeometry x="525" y="980" width="75" height="20" as="geometry" />
        </mxCell>
        <mxCell id="tzb5yaRrSsXEz6ic2CVl-104" value="Categorie1" style="text;html=1;strokeColor=none;fillColor=none;align=center;verticalAlign=middle;whiteSpace=wrap;rounded=0;" vertex="1" parent="1">
          <mxGeometry x="80" y="1490" width="210" height="20" as="geometry" />
        </mxCell>
        <mxCell id="tzb5yaRrSsXEz6ic2CVl-105" value="Vraag 1" style="text;html=1;strokeColor=none;fillColor=none;align=center;verticalAlign=middle;whiteSpace=wrap;rounded=0;" vertex="1" parent="1">
          <mxGeometry x="290" y="1490" width="330" height="20" as="geometry" />
        </mxCell>
        <mxCell id="tzb5yaRrSsXEz6ic2CVl-106" value="Categorie2" style="text;html=1;strokeColor=none;fillColor=none;align=center;verticalAlign=middle;whiteSpace=wrap;rounded=0;" vertex="1" parent="1">
          <mxGeometry x="80" y="1510" width="210" height="20" as="geometry" />
        </mxCell>
        <mxCell id="tzb5yaRrSsXEz6ic2CVl-107" value="Vraag 2" style="text;html=1;strokeColor=none;fillColor=none;align=center;verticalAlign=middle;whiteSpace=wrap;rounded=0;" vertex="1" parent="1">
          <mxGeometry x="290" y="1510" width="330" height="20" as="geometry" />
        </mxCell>
        <mxCell id="tzb5yaRrSsXEz6ic2CVl-108" value="Categorie3" style="text;html=1;strokeColor=#666666;fillColor=#f5f5f5;align=center;verticalAlign=middle;whiteSpace=wrap;rounded=0;fontColor=#333333;" vertex="1" parent="1">
          <mxGeometry x="80" y="1530" width="210" height="20" as="geometry" />
        </mxCell>
        <mxCell id="tzb5yaRrSsXEz6ic2CVl-109" value="Vraag 2" style="text;html=1;strokeColor=#666666;fillColor=#f5f5f5;align=center;verticalAlign=middle;whiteSpace=wrap;rounded=0;fontColor=#333333;" vertex="1" parent="1">
          <mxGeometry x="290" y="1530" width="330" height="20" as="geometry" />
        </mxCell>
        <mxCell id="tzb5yaRrSsXEz6ic2CVl-110" value="Stel vraag" style="rounded=1;whiteSpace=wrap;html=1;fillColor=#d5e8d4;strokeColor=#82b366;" vertex="1" parent="1">
          <mxGeometry x="527.5" y="1810" width="90" height="30" as="geometry" />
        </mxCell>
        <mxCell id="tzb5yaRrSsXEz6ic2CVl-111" value="" style="rounded=0;whiteSpace=wrap;html=1;" vertex="1" parent="1">
          <mxGeometry x="50" y="1860" width="590" height="440" as="geometry" />
        </mxCell>
        <mxCell id="tzb5yaRrSsXEz6ic2CVl-112" value="master" style="text;html=1;strokeColor=none;fillColor=none;align=center;verticalAlign=middle;whiteSpace=wrap;rounded=0;" vertex="1" parent="1">
          <mxGeometry x="50" y="1860" width="40" height="20" as="geometry" />
        </mxCell>
        <mxCell id="tzb5yaRrSsXEz6ic2CVl-113" value="&lt;font style=&quot;font-size: 24px&quot;&gt;Beoordelen&lt;/font&gt;" style="text;html=1;strokeColor=none;fillColor=none;align=center;verticalAlign=middle;whiteSpace=wrap;rounded=0;" vertex="1" parent="1">
          <mxGeometry x="252.5" y="1890" width="185" height="40" as="geometry" />
        </mxCell>
        <mxCell id="tzb5yaRrSsXEz6ic2CVl-114" value="" style="rounded=0;whiteSpace=wrap;html=1;" vertex="1" parent="1">
          <mxGeometry x="90" y="2040" width="530" height="210" as="geometry" />
        </mxCell>
        <mxCell id="tzb5yaRrSsXEz6ic2CVl-115" value="Team1" style="text;html=1;strokeColor=none;fillColor=none;align=center;verticalAlign=middle;whiteSpace=wrap;rounded=0;" vertex="1" parent="1">
          <mxGeometry x="100" y="2050" width="40" height="20" as="geometry" />
        </mxCell>
        <mxCell id="tzb5yaRrSsXEz6ic2CVl-116" value="antwoord 1" style="text;html=1;strokeColor=none;fillColor=none;align=center;verticalAlign=middle;whiteSpace=wrap;rounded=0;" vertex="1" parent="1">
          <mxGeometry x="155" y="2050" width="155" height="20" as="geometry" />
        </mxCell>
        <mxCell id="tzb5yaRrSsXEz6ic2CVl-117" value="" style="rounded=1;whiteSpace=wrap;html=1;fillColor=#d5e8d4;strokeColor=#82b366;" vertex="1" parent="1">
          <mxGeometry x="285" y="2050" width="50" height="20" as="geometry" />
        </mxCell>
        <mxCell id="tzb5yaRrSsXEz6ic2CVl-118" value="" style="ellipse;whiteSpace=wrap;html=1;aspect=fixed;fillColor=#d5e8d4;strokeColor=#82b366;" vertex="1" parent="1">
          <mxGeometry x="315" y="2050" width="20" height="20" as="geometry" />
        </mxCell>
        <mxCell id="tzb5yaRrSsXEz6ic2CVl-119" value="Team2" style="text;html=1;strokeColor=none;fillColor=none;align=center;verticalAlign=middle;whiteSpace=wrap;rounded=0;" vertex="1" parent="1">
          <mxGeometry x="100" y="2070" width="40" height="20" as="geometry" />
        </mxCell>
        <mxCell id="tzb5yaRrSsXEz6ic2CVl-120" value="antwoord 2" style="text;html=1;strokeColor=none;fillColor=none;align=center;verticalAlign=middle;whiteSpace=wrap;rounded=0;" vertex="1" parent="1">
          <mxGeometry x="155" y="2070" width="155" height="20" as="geometry" />
        </mxCell>
        <mxCell id="tzb5yaRrSsXEz6ic2CVl-121" value="" style="rounded=1;whiteSpace=wrap;html=1;fillColor=#f8cecc;strokeColor=#b85450;" vertex="1" parent="1">
          <mxGeometry x="285" y="2070" width="50" height="20" as="geometry" />
        </mxCell>
        <mxCell id="tzb5yaRrSsXEz6ic2CVl-122" value="" style="ellipse;whiteSpace=wrap;html=1;aspect=fixed;fillColor=#f8cecc;strokeColor=#b85450;" vertex="1" parent="1">
          <mxGeometry x="285" y="2070" width="20" height="20" as="geometry" />
        </mxCell>
        <mxCell id="tzb5yaRrSsXEz6ic2CVl-124" value="Volgende vraag" style="rounded=1;whiteSpace=wrap;html=1;fillColor=#f5f5f5;strokeColor=#666666;fontColor=#333333;" vertex="1" parent="1">
          <mxGeometry x="530" y="2260" width="90" height="30" as="geometry" />
        </mxCell>
        <mxCell id="tzb5yaRrSsXEz6ic2CVl-126" value="Stop vraag" style="rounded=1;whiteSpace=wrap;html=1;" vertex="1" parent="1">
          <mxGeometry x="435" y="2260" width="90" height="30" as="geometry" />
        </mxCell>
        <mxCell id="tzb5yaRrSsXEz6ic2CVl-127" value="Disabled totdat alle teams hebben geantwoord OF de master stop vraag heeft ingedrukt" style="text;html=1;strokeColor=none;fillColor=none;align=center;verticalAlign=middle;whiteSpace=wrap;rounded=0;" vertex="1" parent="1">
          <mxGeometry x="680" y="2150" width="290" height="30" as="geometry" />
        </mxCell>
        <mxCell id="tzb5yaRrSsXEz6ic2CVl-128" value="Vraag 1/12" style="text;html=1;strokeColor=none;fillColor=none;align=center;verticalAlign=middle;whiteSpace=wrap;rounded=0;" vertex="1" parent="1">
          <mxGeometry x="545" y="1910" width="75" height="20" as="geometry" />
        </mxCell>
        <mxCell id="tzb5yaRrSsXEz6ic2CVl-129" value="Quizronde 1" style="text;html=1;strokeColor=none;fillColor=none;align=center;verticalAlign=middle;whiteSpace=wrap;rounded=0;" vertex="1" parent="1">
          <mxGeometry x="545" y="1890" width="75" height="20" as="geometry" />
        </mxCell>
        <mxCell id="tzb5yaRrSsXEz6ic2CVl-130" value="564125" style="text;html=1;strokeColor=none;fillColor=none;align=center;verticalAlign=middle;whiteSpace=wrap;rounded=0;" vertex="1" parent="1">
          <mxGeometry x="545" y="1870" width="75" height="20" as="geometry" />
        </mxCell>
        <mxCell id="tzb5yaRrSsXEz6ic2CVl-131" value="" style="rounded=0;whiteSpace=wrap;html=1;" vertex="1" parent="1">
          <mxGeometry x="50" y="2310" width="590" height="440" as="geometry" />
        </mxCell>
        <mxCell id="tzb5yaRrSsXEz6ic2CVl-132" value="master" style="text;html=1;strokeColor=none;fillColor=none;align=center;verticalAlign=middle;whiteSpace=wrap;rounded=0;" vertex="1" parent="1">
          <mxGeometry x="50" y="2310" width="40" height="20" as="geometry" />
        </mxCell>
        <mxCell id="tzb5yaRrSsXEz6ic2CVl-133" value="&lt;font style=&quot;font-size: 24px&quot;&gt;Einde quizronde&lt;/font&gt;" style="text;html=1;strokeColor=none;fillColor=none;align=center;verticalAlign=middle;whiteSpace=wrap;rounded=0;" vertex="1" parent="1">
          <mxGeometry x="252.5" y="2340" width="185" height="40" as="geometry" />
        </mxCell>
        <mxCell id="tzb5yaRrSsXEz6ic2CVl-134" value="Vraag 12/12" style="text;html=1;strokeColor=none;fillColor=none;align=center;verticalAlign=middle;whiteSpace=wrap;rounded=0;" vertex="1" parent="1">
          <mxGeometry x="545" y="2360" width="75" height="20" as="geometry" />
        </mxCell>
        <mxCell id="tzb5yaRrSsXEz6ic2CVl-135" value="Quizronde 4" style="text;html=1;strokeColor=none;fillColor=none;align=center;verticalAlign=middle;whiteSpace=wrap;rounded=0;" vertex="1" parent="1">
          <mxGeometry x="545" y="2340" width="75" height="20" as="geometry" />
        </mxCell>
        <mxCell id="tzb5yaRrSsXEz6ic2CVl-136" value="564125" style="text;html=1;strokeColor=none;fillColor=none;align=center;verticalAlign=middle;whiteSpace=wrap;rounded=0;" vertex="1" parent="1">
          <mxGeometry x="545" y="2320" width="75" height="20" as="geometry" />
        </mxCell>
        <mxCell id="tzb5yaRrSsXEz6ic2CVl-137" value="Beëindig quiznight" style="rounded=1;whiteSpace=wrap;html=1;fillColor=#f8cecc;strokeColor=#b85450;" vertex="1" parent="1">
          <mxGeometry x="177.5" y="2470" width="132.5" height="60" as="geometry" />
        </mxCell>
        <mxCell id="tzb5yaRrSsXEz6ic2CVl-138" value="Volgende ronde" style="rounded=1;whiteSpace=wrap;html=1;fillColor=#d5e8d4;strokeColor=#82b366;" vertex="1" parent="1">
          <mxGeometry x="360" y="2470" width="120" height="60" as="geometry" />
        </mxCell>
        <mxCell id="tzb5yaRrSsXEz6ic2CVl-146" value="" style="rounded=0;whiteSpace=wrap;html=1;" vertex="1" parent="1">
          <mxGeometry x="50" y="2760" width="590" height="440" as="geometry" />
        </mxCell>
        <mxCell id="tzb5yaRrSsXEz6ic2CVl-147" value="master" style="text;html=1;strokeColor=none;fillColor=none;align=center;verticalAlign=middle;whiteSpace=wrap;rounded=0;" vertex="1" parent="1">
          <mxGeometry x="50" y="2760" width="40" height="20" as="geometry" />
        </mxCell>
        <mxCell id="tzb5yaRrSsXEz6ic2CVl-148" value="&lt;font style=&quot;font-size: 24px&quot;&gt;Einde quiznight&lt;/font&gt;" style="text;html=1;strokeColor=none;fillColor=none;align=center;verticalAlign=middle;whiteSpace=wrap;rounded=0;" vertex="1" parent="1">
          <mxGeometry x="252.5" y="2790" width="185" height="40" as="geometry" />
        </mxCell>
        <mxCell id="tzb5yaRrSsXEz6ic2CVl-149" value="Vraag 12/12" style="text;html=1;strokeColor=none;fillColor=none;align=center;verticalAlign=middle;whiteSpace=wrap;rounded=0;" vertex="1" parent="1">
          <mxGeometry x="545" y="2810" width="75" height="20" as="geometry" />
        </mxCell>
        <mxCell id="tzb5yaRrSsXEz6ic2CVl-150" value="Quizronde 4" style="text;html=1;strokeColor=none;fillColor=none;align=center;verticalAlign=middle;whiteSpace=wrap;rounded=0;" vertex="1" parent="1">
          <mxGeometry x="545" y="2790" width="75" height="20" as="geometry" />
        </mxCell>
        <mxCell id="tzb5yaRrSsXEz6ic2CVl-151" value="564125" style="text;html=1;strokeColor=none;fillColor=none;align=center;verticalAlign=middle;whiteSpace=wrap;rounded=0;" vertex="1" parent="1">
          <mxGeometry x="545" y="2770" width="75" height="20" as="geometry" />
        </mxCell>
        <mxCell id="tzb5yaRrSsXEz6ic2CVl-153" value="Home" style="rounded=1;whiteSpace=wrap;html=1;" vertex="1" parent="1">
          <mxGeometry x="490" y="3160" width="90" height="30" as="geometry" />
        </mxCell>
        <mxCell id="tzb5yaRrSsXEz6ic2CVl-162" value="Eindscore" style="text;html=1;strokeColor=none;fillColor=none;align=center;verticalAlign=middle;whiteSpace=wrap;rounded=0;" vertex="1" parent="1">
          <mxGeometry x="110" y="2930" width="80" height="20" as="geometry" />
        </mxCell>
        <mxCell id="tzb5yaRrSsXEz6ic2CVl-163" value="" style="rounded=0;whiteSpace=wrap;html=1;" vertex="1" parent="1">
          <mxGeometry x="970" y="1850" width="590" height="440" as="geometry" />
        </mxCell>
        <mxCell id="tzb5yaRrSsXEz6ic2CVl-164" value="scoreboard" style="text;html=1;strokeColor=none;fillColor=none;align=center;verticalAlign=middle;whiteSpace=wrap;rounded=0;" vertex="1" parent="1">
          <mxGeometry x="970" y="1850" width="70" height="20" as="geometry" />
        </mxCell>
        <mxCell id="tzb5yaRrSsXEz6ic2CVl-166" value="" style="rounded=0;whiteSpace=wrap;html=1;" vertex="1" parent="1">
          <mxGeometry x="1010" y="2070" width="530" height="180" as="geometry" />
        </mxCell>
        <mxCell id="tzb5yaRrSsXEz6ic2CVl-167" value="Team1" style="text;html=1;strokeColor=none;fillColor=none;align=center;verticalAlign=middle;whiteSpace=wrap;rounded=0;" vertex="1" parent="1">
          <mxGeometry x="1020" y="2070" width="40" height="20" as="geometry" />
        </mxCell>
        <mxCell id="tzb5yaRrSsXEz6ic2CVl-171" value="Team3" style="text;html=1;strokeColor=none;fillColor=none;align=center;verticalAlign=middle;whiteSpace=wrap;rounded=0;" vertex="1" parent="1">
          <mxGeometry x="1020" y="2090" width="40" height="20" as="geometry" />
        </mxCell>
        <mxCell id="tzb5yaRrSsXEz6ic2CVl-177" value="&lt;font style=&quot;font-size: 24px&quot;&gt;Vraag 1/12&lt;/font&gt;" style="text;html=1;strokeColor=none;fillColor=none;align=center;verticalAlign=middle;whiteSpace=wrap;rounded=0;" vertex="1" parent="1">
          <mxGeometry x="1198.75" y="1860" width="132.5" height="20" as="geometry" />
        </mxCell>
        <mxCell id="tzb5yaRrSsXEz6ic2CVl-178" value="&lt;font style=&quot;font-size: 18px&quot;&gt;Quizronde 1&lt;/font&gt;" style="text;html=1;strokeColor=none;fillColor=none;align=center;verticalAlign=middle;whiteSpace=wrap;rounded=0;" vertex="1" parent="1">
          <mxGeometry x="1203.75" y="1890" width="142.5" height="20" as="geometry" />
        </mxCell>
        <mxCell id="tzb5yaRrSsXEz6ic2CVl-179" value="564125" style="text;html=1;strokeColor=none;fillColor=none;align=center;verticalAlign=middle;whiteSpace=wrap;rounded=0;" vertex="1" parent="1">
          <mxGeometry x="1465" y="1860" width="75" height="20" as="geometry" />
        </mxCell>
        <mxCell id="tzb5yaRrSsXEz6ic2CVl-180" value="" style="rounded=0;whiteSpace=wrap;html=1;" vertex="1" parent="1">
          <mxGeometry x="970" y="2830" width="590" height="440" as="geometry" />
        </mxCell>
        <mxCell id="tzb5yaRrSsXEz6ic2CVl-181" value="scoreboard" style="text;html=1;strokeColor=none;fillColor=none;align=center;verticalAlign=middle;whiteSpace=wrap;rounded=0;" vertex="1" parent="1">
          <mxGeometry x="970" y="2830" width="70" height="20" as="geometry" />
        </mxCell>
        <mxCell id="tzb5yaRrSsXEz6ic2CVl-183" value="Vraag 12/12" style="text;html=1;strokeColor=none;fillColor=none;align=center;verticalAlign=middle;whiteSpace=wrap;rounded=0;" vertex="1" parent="1">
          <mxGeometry x="1465" y="2880" width="75" height="20" as="geometry" />
        </mxCell>
        <mxCell id="tzb5yaRrSsXEz6ic2CVl-184" value="Quizronde 4" style="text;html=1;strokeColor=none;fillColor=none;align=center;verticalAlign=middle;whiteSpace=wrap;rounded=0;" vertex="1" parent="1">
          <mxGeometry x="1465" y="2860" width="75" height="20" as="geometry" />
        </mxCell>
        <mxCell id="tzb5yaRrSsXEz6ic2CVl-185" value="564125" style="text;html=1;strokeColor=none;fillColor=none;align=center;verticalAlign=middle;whiteSpace=wrap;rounded=0;" vertex="1" parent="1">
          <mxGeometry x="1465" y="2840" width="75" height="20" as="geometry" />
        </mxCell>
        <mxCell id="tzb5yaRrSsXEz6ic2CVl-188" value="" style="rounded=0;whiteSpace=wrap;html=1;" vertex="1" parent="1">
          <mxGeometry x="1020" y="2920" width="480" height="260" as="geometry" />
        </mxCell>
        <mxCell id="tzb5yaRrSsXEz6ic2CVl-189" value="Team 1" style="text;html=1;strokeColor=none;fillColor=none;align=center;verticalAlign=middle;whiteSpace=wrap;rounded=0;" vertex="1" parent="1">
          <mxGeometry x="1030" y="2960" width="110" height="20" as="geometry" />
        </mxCell>
        <mxCell id="tzb5yaRrSsXEz6ic2CVl-190" value="14" style="text;html=1;strokeColor=none;fillColor=none;align=center;verticalAlign=middle;whiteSpace=wrap;rounded=0;" vertex="1" parent="1">
          <mxGeometry x="1290" y="2960" width="110" height="20" as="geometry" />
        </mxCell>
        <mxCell id="tzb5yaRrSsXEz6ic2CVl-191" value="Team 3" style="text;html=1;strokeColor=none;fillColor=none;align=center;verticalAlign=middle;whiteSpace=wrap;rounded=0;" vertex="1" parent="1">
          <mxGeometry x="1030" y="2980" width="110" height="20" as="geometry" />
        </mxCell>
        <mxCell id="tzb5yaRrSsXEz6ic2CVl-192" value="11" style="text;html=1;strokeColor=none;fillColor=none;align=center;verticalAlign=middle;whiteSpace=wrap;rounded=0;" vertex="1" parent="1">
          <mxGeometry x="1290" y="2980" width="110" height="20" as="geometry" />
        </mxCell>
        <mxCell id="tzb5yaRrSsXEz6ic2CVl-193" value="Team 2" style="text;html=1;strokeColor=none;fillColor=none;align=center;verticalAlign=middle;whiteSpace=wrap;rounded=0;" vertex="1" parent="1">
          <mxGeometry x="1030" y="3000" width="110" height="20" as="geometry" />
        </mxCell>
        <mxCell id="tzb5yaRrSsXEz6ic2CVl-194" value="10" style="text;html=1;strokeColor=none;fillColor=none;align=center;verticalAlign=middle;whiteSpace=wrap;rounded=0;" vertex="1" parent="1">
          <mxGeometry x="1290" y="3000" width="110" height="20" as="geometry" />
        </mxCell>
        <mxCell id="tzb5yaRrSsXEz6ic2CVl-195" value="&lt;font style=&quot;font-size: 36px&quot;&gt;Tussenstand&lt;/font&gt;" style="text;html=1;strokeColor=none;fillColor=none;align=center;verticalAlign=middle;whiteSpace=wrap;rounded=0;" vertex="1" parent="1">
          <mxGeometry x="1217.5" y="2860" width="80" height="20" as="geometry" />
        </mxCell>
        <mxCell id="tzb5yaRrSsXEz6ic2CVl-196" value="Wat is de hoofdstad van Frankrijk?" style="text;html=1;strokeColor=none;fillColor=none;align=center;verticalAlign=middle;whiteSpace=wrap;rounded=0;" vertex="1" parent="1">
          <mxGeometry x="395" y="1940" width="230" height="20" as="geometry" />
        </mxCell>
        <mxCell id="tzb5yaRrSsXEz6ic2CVl-197" value="Topografie" style="text;html=1;strokeColor=none;fillColor=none;align=center;verticalAlign=middle;whiteSpace=wrap;rounded=0;" vertex="1" parent="1">
          <mxGeometry x="90" y="1940" width="70" height="20" as="geometry" />
        </mxCell>
        <mxCell id="tzb5yaRrSsXEz6ic2CVl-198" value="Parijs" style="text;html=1;strokeColor=none;fillColor=none;align=center;verticalAlign=middle;whiteSpace=wrap;rounded=0;" vertex="1" parent="1">
          <mxGeometry x="560" y="1960" width="40" height="20" as="geometry" />
        </mxCell>
        <mxCell id="tzb5yaRrSsXEz6ic2CVl-199" value="&lt;font style=&quot;font-size: 36px&quot;&gt;Wat is de hoofdstad van Frankrijk?&lt;/font&gt;" style="text;html=1;strokeColor=none;fillColor=none;align=center;verticalAlign=middle;whiteSpace=wrap;rounded=0;" vertex="1" parent="1">
          <mxGeometry x="970" y="1950" width="590" height="60" as="geometry" />
        </mxCell>
        <mxCell id="tzb5yaRrSsXEz6ic2CVl-200" value="&lt;font style=&quot;font-size: 18px&quot;&gt;Topografie&lt;/font&gt;" style="text;html=1;strokeColor=none;fillColor=none;align=center;verticalAlign=middle;whiteSpace=wrap;rounded=0;" vertex="1" parent="1">
          <mxGeometry x="990" y="1930" width="70" height="20" as="geometry" />
        </mxCell>
        <mxCell id="tzb5yaRrSsXEz6ic2CVl-203" value="Team2" style="text;html=1;strokeColor=none;fillColor=none;align=center;verticalAlign=middle;whiteSpace=wrap;rounded=0;" vertex="1" parent="1">
          <mxGeometry x="1020" y="2110" width="40" height="20" as="geometry" />
        </mxCell>
        <mxCell id="tzb5yaRrSsXEz6ic2CVl-205" value="10" style="text;html=1;strokeColor=none;fillColor=none;align=center;verticalAlign=middle;whiteSpace=wrap;rounded=0;" vertex="1" parent="1">
          <mxGeometry x="1180" y="2960" width="40" height="20" as="geometry" />
        </mxCell>
        <mxCell id="tzb5yaRrSsXEz6ic2CVl-206" value="9" style="text;html=1;strokeColor=none;fillColor=none;align=center;verticalAlign=middle;whiteSpace=wrap;rounded=0;" vertex="1" parent="1">
          <mxGeometry x="1180" y="2980" width="40" height="20" as="geometry" />
        </mxCell>
        <mxCell id="tzb5yaRrSsXEz6ic2CVl-207" value="8" style="text;html=1;strokeColor=none;fillColor=none;align=center;verticalAlign=middle;whiteSpace=wrap;rounded=0;" vertex="1" parent="1">
          <mxGeometry x="1180" y="3000" width="40" height="20" as="geometry" />
        </mxCell>
        <mxCell id="tzb5yaRrSsXEz6ic2CVl-209" value="" style="rounded=0;whiteSpace=wrap;html=1;" vertex="1" parent="1">
          <mxGeometry x="1020" y="2920" width="480" height="20" as="geometry" />
        </mxCell>
        <mxCell id="tzb5yaRrSsXEz6ic2CVl-210" value="Team" style="text;html=1;strokeColor=none;fillColor=none;align=center;verticalAlign=middle;whiteSpace=wrap;rounded=0;" vertex="1" parent="1">
          <mxGeometry x="1065" y="2920" width="40" height="20" as="geometry" />
        </mxCell>
        <mxCell id="tzb5yaRrSsXEz6ic2CVl-211" value="Goede antwoorden" style="text;html=1;strokeColor=none;fillColor=none;align=center;verticalAlign=middle;whiteSpace=wrap;rounded=0;" vertex="1" parent="1">
          <mxGeometry x="1140" y="2920" width="110" height="20" as="geometry" />
        </mxCell>
        <mxCell id="tzb5yaRrSsXEz6ic2CVl-212" value="Rondepunten" style="text;html=1;strokeColor=none;fillColor=none;align=center;verticalAlign=middle;whiteSpace=wrap;rounded=0;" vertex="1" parent="1">
          <mxGeometry x="1297.5" y="2920" width="95" height="20" as="geometry" />
        </mxCell>
        <mxCell id="tzb5yaRrSsXEz6ic2CVl-240" value="" style="rounded=0;whiteSpace=wrap;html=1;" vertex="1" parent="1">
          <mxGeometry x="110" y="2950" width="480" height="160" as="geometry" />
        </mxCell>
        <mxCell id="tzb5yaRrSsXEz6ic2CVl-241" value="" style="rounded=0;whiteSpace=wrap;html=1;" vertex="1" parent="1">
          <mxGeometry x="110" y="2950" width="480" height="20" as="geometry" />
        </mxCell>
        <mxCell id="tzb5yaRrSsXEz6ic2CVl-242" value="Team" style="text;html=1;strokeColor=none;fillColor=none;align=center;verticalAlign=middle;whiteSpace=wrap;rounded=0;" vertex="1" parent="1">
          <mxGeometry x="161.25" y="2950" width="40" height="20" as="geometry" />
        </mxCell>
        <mxCell id="tzb5yaRrSsXEz6ic2CVl-243" value="Goede antwoorden" style="text;html=1;strokeColor=none;fillColor=none;align=center;verticalAlign=middle;whiteSpace=wrap;rounded=0;" vertex="1" parent="1">
          <mxGeometry x="236.25" y="2950" width="110" height="20" as="geometry" />
        </mxCell>
        <mxCell id="tzb5yaRrSsXEz6ic2CVl-244" value="Rondepunten" style="text;html=1;strokeColor=none;fillColor=none;align=center;verticalAlign=middle;whiteSpace=wrap;rounded=0;" vertex="1" parent="1">
          <mxGeometry x="393.75" y="2950" width="95" height="20" as="geometry" />
        </mxCell>
        <mxCell id="tzb5yaRrSsXEz6ic2CVl-245" value="Team 1" style="text;html=1;strokeColor=none;fillColor=none;align=center;verticalAlign=middle;whiteSpace=wrap;rounded=0;" vertex="1" parent="1">
          <mxGeometry x="130" y="2980" width="110" height="20" as="geometry" />
        </mxCell>
        <mxCell id="tzb5yaRrSsXEz6ic2CVl-246" value="14" style="text;html=1;strokeColor=none;fillColor=none;align=center;verticalAlign=middle;whiteSpace=wrap;rounded=0;" vertex="1" parent="1">
          <mxGeometry x="390" y="2980" width="110" height="20" as="geometry" />
        </mxCell>
        <mxCell id="tzb5yaRrSsXEz6ic2CVl-247" value="Team 3" style="text;html=1;strokeColor=none;fillColor=none;align=center;verticalAlign=middle;whiteSpace=wrap;rounded=0;" vertex="1" parent="1">
          <mxGeometry x="130" y="3000" width="110" height="20" as="geometry" />
        </mxCell>
        <mxCell id="tzb5yaRrSsXEz6ic2CVl-248" value="11" style="text;html=1;strokeColor=none;fillColor=none;align=center;verticalAlign=middle;whiteSpace=wrap;rounded=0;" vertex="1" parent="1">
          <mxGeometry x="390" y="3000" width="110" height="20" as="geometry" />
        </mxCell>
        <mxCell id="tzb5yaRrSsXEz6ic2CVl-249" value="Team 2" style="text;html=1;strokeColor=none;fillColor=none;align=center;verticalAlign=middle;whiteSpace=wrap;rounded=0;" vertex="1" parent="1">
          <mxGeometry x="130" y="3020" width="110" height="20" as="geometry" />
        </mxCell>
        <mxCell id="tzb5yaRrSsXEz6ic2CVl-250" value="10" style="text;html=1;strokeColor=none;fillColor=none;align=center;verticalAlign=middle;whiteSpace=wrap;rounded=0;" vertex="1" parent="1">
          <mxGeometry x="390" y="3020" width="110" height="20" as="geometry" />
        </mxCell>
        <mxCell id="tzb5yaRrSsXEz6ic2CVl-251" value="10" style="text;html=1;strokeColor=none;fillColor=none;align=center;verticalAlign=middle;whiteSpace=wrap;rounded=0;" vertex="1" parent="1">
          <mxGeometry x="280" y="2980" width="40" height="20" as="geometry" />
        </mxCell>
        <mxCell id="tzb5yaRrSsXEz6ic2CVl-252" value="9" style="text;html=1;strokeColor=none;fillColor=none;align=center;verticalAlign=middle;whiteSpace=wrap;rounded=0;" vertex="1" parent="1">
          <mxGeometry x="280" y="3000" width="40" height="20" as="geometry" />
        </mxCell>
        <mxCell id="tzb5yaRrSsXEz6ic2CVl-253" value="8" style="text;html=1;strokeColor=none;fillColor=none;align=center;verticalAlign=middle;whiteSpace=wrap;rounded=0;" vertex="1" parent="1">
          <mxGeometry x="280" y="3020" width="40" height="20" as="geometry" />
        </mxCell>
        <mxCell id="tzb5yaRrSsXEz6ic2CVl-254" value="" style="rounded=0;whiteSpace=wrap;html=1;" vertex="1" parent="1">
          <mxGeometry x="1680" y="40" width="590" height="440" as="geometry" />
        </mxCell>
        <mxCell id="tzb5yaRrSsXEz6ic2CVl-255" value="team" style="text;html=1;strokeColor=none;fillColor=none;align=center;verticalAlign=middle;whiteSpace=wrap;rounded=0;" vertex="1" parent="1">
          <mxGeometry x="1680" y="40" width="40" height="20" as="geometry" />
        </mxCell>
        <mxCell id="tzb5yaRrSsXEz6ic2CVl-256" value="&lt;font style=&quot;font-size: 32px&quot;&gt;Quizzer&lt;/font&gt;" style="text;html=1;strokeColor=none;fillColor=none;align=center;verticalAlign=middle;whiteSpace=wrap;rounded=0;" vertex="1" parent="1">
          <mxGeometry x="1882.5" y="110" width="185" height="40" as="geometry" />
        </mxCell>
        <mxCell id="tzb5yaRrSsXEz6ic2CVl-257" value="Teamnaam" style="rounded=0;whiteSpace=wrap;html=1;" vertex="1" parent="1">
          <mxGeometry x="1915" y="230" width="120" height="30" as="geometry" />
        </mxCell>
        <mxCell id="tzb5yaRrSsXEz6ic2CVl-259" value="Quiznightpin" style="rounded=0;whiteSpace=wrap;html=1;" vertex="1" parent="1">
          <mxGeometry x="1915" y="200" width="120" height="30" as="geometry" />
        </mxCell>
        <mxCell id="tzb5yaRrSsXEz6ic2CVl-260" value="Deelnemen" style="rounded=1;whiteSpace=wrap;html=1;fillColor=#d5e8d4;strokeColor=#82b366;" vertex="1" parent="1">
          <mxGeometry x="1930" y="320" width="90" height="30" as="geometry" />
        </mxCell>
        <mxCell id="tzb5yaRrSsXEz6ic2CVl-261" value="" style="rounded=0;whiteSpace=wrap;html=1;" vertex="1" parent="1">
          <mxGeometry x="1680" y="500" width="590" height="440" as="geometry" />
        </mxCell>
        <mxCell id="tzb5yaRrSsXEz6ic2CVl-262" value="team" style="text;html=1;strokeColor=none;fillColor=none;align=center;verticalAlign=middle;whiteSpace=wrap;rounded=0;" vertex="1" parent="1">
          <mxGeometry x="1680" y="500" width="40" height="20" as="geometry" />
        </mxCell>
        <mxCell id="tzb5yaRrSsXEz6ic2CVl-263" value="&lt;font style=&quot;font-size: 32px&quot;&gt;Quizzer&lt;/font&gt;" style="text;html=1;strokeColor=none;fillColor=none;align=center;verticalAlign=middle;whiteSpace=wrap;rounded=0;" vertex="1" parent="1">
          <mxGeometry x="1882.5" y="570" width="185" height="40" as="geometry" />
        </mxCell>
        <mxCell id="tzb5yaRrSsXEz6ic2CVl-267" value="Super coole teamnaam" style="text;html=1;strokeColor=none;fillColor=none;align=center;verticalAlign=middle;whiteSpace=wrap;rounded=0;" vertex="1" parent="1">
          <mxGeometry x="1907.5" y="610" width="135" height="20" as="geometry" />
        </mxCell>
        <mxCell id="tzb5yaRrSsXEz6ic2CVl-268" value="(Spinner)" style="ellipse;whiteSpace=wrap;html=1;aspect=fixed;" vertex="1" parent="1">
          <mxGeometry x="1935" y="680" width="80" height="80" as="geometry" />
        </mxCell>
        <mxCell id="tzb5yaRrSsXEz6ic2CVl-269" value="Wachten op toelating..." style="text;html=1;strokeColor=none;fillColor=none;align=center;verticalAlign=middle;whiteSpace=wrap;rounded=0;" vertex="1" parent="1">
          <mxGeometry x="1902.5" y="780" width="145" height="20" as="geometry" />
        </mxCell>
        <mxCell id="tzb5yaRrSsXEz6ic2CVl-270" value="" style="rounded=0;whiteSpace=wrap;html=1;" vertex="1" parent="1">
          <mxGeometry x="1680" y="950" width="590" height="440" as="geometry" />
        </mxCell>
        <mxCell id="tzb5yaRrSsXEz6ic2CVl-271" value="team" style="text;html=1;strokeColor=none;fillColor=none;align=center;verticalAlign=middle;whiteSpace=wrap;rounded=0;" vertex="1" parent="1">
          <mxGeometry x="1680" y="950" width="40" height="20" as="geometry" />
        </mxCell>
        <mxCell id="tzb5yaRrSsXEz6ic2CVl-272" value="&lt;font style=&quot;font-size: 32px&quot;&gt;Quizzer&lt;/font&gt;" style="text;html=1;strokeColor=none;fillColor=none;align=center;verticalAlign=middle;whiteSpace=wrap;rounded=0;" vertex="1" parent="1">
          <mxGeometry x="1882.5" y="1020" width="185" height="40" as="geometry" />
        </mxCell>
        <mxCell id="tzb5yaRrSsXEz6ic2CVl-273" value="Super coole teamnaam" style="text;html=1;strokeColor=none;fillColor=none;align=center;verticalAlign=middle;whiteSpace=wrap;rounded=0;" vertex="1" parent="1">
          <mxGeometry x="1907.5" y="1060" width="135" height="20" as="geometry" />
        </mxCell>
        <mxCell id="tzb5yaRrSsXEz6ic2CVl-274" value="(Spinner)" style="ellipse;whiteSpace=wrap;html=1;aspect=fixed;" vertex="1" parent="1">
          <mxGeometry x="1935" y="1130" width="80" height="80" as="geometry" />
        </mxCell>
        <mxCell id="tzb5yaRrSsXEz6ic2CVl-275" value="Wachten op vraag..." style="text;html=1;strokeColor=none;fillColor=none;align=center;verticalAlign=middle;whiteSpace=wrap;rounded=0;" vertex="1" parent="1">
          <mxGeometry x="1902.5" y="1230" width="145" height="20" as="geometry" />
        </mxCell>
        <mxCell id="tzb5yaRrSsXEz6ic2CVl-276" value="564125" style="text;html=1;strokeColor=none;fillColor=none;align=center;verticalAlign=middle;whiteSpace=wrap;rounded=0;" vertex="1" parent="1">
          <mxGeometry x="2190" y="520" width="75" height="20" as="geometry" />
        </mxCell>
        <mxCell id="tzb5yaRrSsXEz6ic2CVl-277" value="564125" style="text;html=1;strokeColor=none;fillColor=none;align=center;verticalAlign=middle;whiteSpace=wrap;rounded=0;" vertex="1" parent="1">
          <mxGeometry x="2190" y="960" width="75" height="20" as="geometry" />
        </mxCell>
        <mxCell id="tzb5yaRrSsXEz6ic2CVl-278" value="" style="rounded=0;whiteSpace=wrap;html=1;" vertex="1" parent="1">
          <mxGeometry x="1680" y="1410" width="590" height="440" as="geometry" />
        </mxCell>
        <mxCell id="tzb5yaRrSsXEz6ic2CVl-279" value="team" style="text;html=1;strokeColor=none;fillColor=none;align=center;verticalAlign=middle;whiteSpace=wrap;rounded=0;" vertex="1" parent="1">
          <mxGeometry x="1680" y="1410" width="40" height="20" as="geometry" />
        </mxCell>
        <mxCell id="tzb5yaRrSsXEz6ic2CVl-280" value="&lt;font style=&quot;font-size: 32px&quot;&gt;Quizzer&lt;/font&gt;" style="text;html=1;strokeColor=none;fillColor=none;align=center;verticalAlign=middle;whiteSpace=wrap;rounded=0;" vertex="1" parent="1">
          <mxGeometry x="1882.5" y="1480" width="185" height="40" as="geometry" />
        </mxCell>
        <mxCell id="tzb5yaRrSsXEz6ic2CVl-281" value="Super coole teamnaam" style="text;html=1;strokeColor=none;fillColor=none;align=center;verticalAlign=middle;whiteSpace=wrap;rounded=0;" vertex="1" parent="1">
          <mxGeometry x="1907.5" y="1520" width="135" height="20" as="geometry" />
        </mxCell>
        <mxCell id="tzb5yaRrSsXEz6ic2CVl-284" value="564125" style="text;html=1;strokeColor=none;fillColor=none;align=center;verticalAlign=middle;whiteSpace=wrap;rounded=0;" vertex="1" parent="1">
          <mxGeometry x="2190" y="1420" width="75" height="20" as="geometry" />
        </mxCell>
        <mxCell id="tzb5yaRrSsXEz6ic2CVl-285" value="Vraag 1/12" style="text;html=1;strokeColor=none;fillColor=none;align=center;verticalAlign=middle;whiteSpace=wrap;rounded=0;" vertex="1" parent="1">
          <mxGeometry x="2190" y="1460" width="75" height="20" as="geometry" />
        </mxCell>
        <mxCell id="tzb5yaRrSsXEz6ic2CVl-286" value="Quizronde 1" style="text;html=1;strokeColor=none;fillColor=none;align=center;verticalAlign=middle;whiteSpace=wrap;rounded=0;" vertex="1" parent="1">
          <mxGeometry x="2190" y="1440" width="75" height="20" as="geometry" />
        </mxCell>
        <mxCell id="tzb5yaRrSsXEz6ic2CVl-287" value="&lt;font style=&quot;font-size: 24px&quot;&gt;Wat is de hoofdstad van Frankrijk?&lt;/font&gt;" style="text;html=1;strokeColor=none;fillColor=none;align=center;verticalAlign=middle;whiteSpace=wrap;rounded=0;" vertex="1" parent="1">
          <mxGeometry x="1680" y="1540" width="590" height="50" as="geometry" />
        </mxCell>
        <mxCell id="tzb5yaRrSsXEz6ic2CVl-288" value="Antwoord" style="rounded=0;whiteSpace=wrap;html=1;" vertex="1" parent="1">
          <mxGeometry x="1877.5" y="1612.5" width="195" height="35" as="geometry" />
        </mxCell>
        <mxCell id="tzb5yaRrSsXEz6ic2CVl-289" value="Versturen" style="rounded=1;whiteSpace=wrap;html=1;fillColor=#d5e8d4;strokeColor=#82b366;" vertex="1" parent="1">
          <mxGeometry x="1880" y="1660" width="192.5" height="30" as="geometry" />
        </mxCell>
        <mxCell id="tzb5yaRrSsXEz6ic2CVl-290" value="Na verbetering: herzien" style="text;html=1;strokeColor=none;fillColor=none;align=center;verticalAlign=middle;whiteSpace=wrap;rounded=0;" vertex="1" parent="1">
          <mxGeometry x="2290" y="1660" width="190" height="20" as="geometry" />
        </mxCell>
        <mxCell id="tzb5yaRrSsXEz6ic2CVl-291" value="" style="endArrow=none;dashed=1;html=1;exitX=1;exitY=0.5;exitDx=0;exitDy=0;" edge="1" parent="1" source="tzb5yaRrSsXEz6ic2CVl-289" target="tzb5yaRrSsXEz6ic2CVl-290">
          <mxGeometry width="50" height="50" relative="1" as="geometry">
            <mxPoint x="2100" y="1680" as="sourcePoint" />
            <mxPoint x="2150" y="1630" as="targetPoint" />
          </mxGeometry>
        </mxCell>
        <mxCell id="tzb5yaRrSsXEz6ic2CVl-295" value="&lt;span&gt;11 goede antwoorden&lt;/span&gt;&lt;br&gt;&lt;span&gt;15 rondepunten&lt;/span&gt;" style="rounded=0;whiteSpace=wrap;html=1;fillColor=#dae8fc;strokeColor=#6c8ebf;" vertex="1" parent="1">
          <mxGeometry x="280" y="2840" width="140" height="80" as="geometry" />
        </mxCell>
        <mxCell id="tzb5yaRrSsXEz6ic2CVl-294" value="&lt;font style=&quot;font-size: 16px&quot;&gt;Super cool team&lt;/font&gt;" style="text;html=1;strokeColor=none;fillColor=none;align=center;verticalAlign=middle;whiteSpace=wrap;rounded=0;" vertex="1" parent="1">
          <mxGeometry x="272.5" y="2840" width="145" height="20" as="geometry" />
        </mxCell>
        <mxCell id="tzb5yaRrSsXEz6ic2CVl-296" value="" style="rounded=0;whiteSpace=wrap;html=1;" vertex="1" parent="1">
          <mxGeometry x="970" y="3290" width="590" height="440" as="geometry" />
        </mxCell>
        <mxCell id="tzb5yaRrSsXEz6ic2CVl-297" value="scoreboard" style="text;html=1;strokeColor=none;fillColor=none;align=center;verticalAlign=middle;whiteSpace=wrap;rounded=0;" vertex="1" parent="1">
          <mxGeometry x="970" y="3290" width="70" height="20" as="geometry" />
        </mxCell>
        <mxCell id="tzb5yaRrSsXEz6ic2CVl-298" value="&lt;font style=&quot;font-size: 24px&quot;&gt;Einde quiznight&lt;/font&gt;" style="text;html=1;strokeColor=none;fillColor=none;align=center;verticalAlign=middle;whiteSpace=wrap;rounded=0;" vertex="1" parent="1">
          <mxGeometry x="1172.5" y="3320" width="185" height="40" as="geometry" />
        </mxCell>
        <mxCell id="tzb5yaRrSsXEz6ic2CVl-299" value="Vraag 12/12" style="text;html=1;strokeColor=none;fillColor=none;align=center;verticalAlign=middle;whiteSpace=wrap;rounded=0;" vertex="1" parent="1">
          <mxGeometry x="1465" y="3340" width="75" height="20" as="geometry" />
        </mxCell>
        <mxCell id="tzb5yaRrSsXEz6ic2CVl-300" value="Quizronde 4" style="text;html=1;strokeColor=none;fillColor=none;align=center;verticalAlign=middle;whiteSpace=wrap;rounded=0;" vertex="1" parent="1">
          <mxGeometry x="1465" y="3320" width="75" height="20" as="geometry" />
        </mxCell>
        <mxCell id="tzb5yaRrSsXEz6ic2CVl-301" value="564125" style="text;html=1;strokeColor=none;fillColor=none;align=center;verticalAlign=middle;whiteSpace=wrap;rounded=0;" vertex="1" parent="1">
          <mxGeometry x="1465" y="3300" width="75" height="20" as="geometry" />
        </mxCell>
        <mxCell id="tzb5yaRrSsXEz6ic2CVl-303" value="Eindscore" style="text;html=1;strokeColor=none;fillColor=none;align=center;verticalAlign=middle;whiteSpace=wrap;rounded=0;" vertex="1" parent="1">
          <mxGeometry x="1030" y="3460" width="80" height="20" as="geometry" />
        </mxCell>
        <mxCell id="tzb5yaRrSsXEz6ic2CVl-304" value="" style="rounded=0;whiteSpace=wrap;html=1;" vertex="1" parent="1">
          <mxGeometry x="1030" y="3480" width="480" height="160" as="geometry" />
        </mxCell>
        <mxCell id="tzb5yaRrSsXEz6ic2CVl-305" value="" style="rounded=0;whiteSpace=wrap;html=1;" vertex="1" parent="1">
          <mxGeometry x="1030" y="3480" width="480" height="20" as="geometry" />
        </mxCell>
        <mxCell id="tzb5yaRrSsXEz6ic2CVl-306" value="Team" style="text;html=1;strokeColor=none;fillColor=none;align=center;verticalAlign=middle;whiteSpace=wrap;rounded=0;" vertex="1" parent="1">
          <mxGeometry x="1081.25" y="3480" width="40" height="20" as="geometry" />
        </mxCell>
        <mxCell id="tzb5yaRrSsXEz6ic2CVl-307" value="Goede antwoorden" style="text;html=1;strokeColor=none;fillColor=none;align=center;verticalAlign=middle;whiteSpace=wrap;rounded=0;" vertex="1" parent="1">
          <mxGeometry x="1156.25" y="3480" width="110" height="20" as="geometry" />
        </mxCell>
        <mxCell id="tzb5yaRrSsXEz6ic2CVl-308" value="Rondepunten" style="text;html=1;strokeColor=none;fillColor=none;align=center;verticalAlign=middle;whiteSpace=wrap;rounded=0;" vertex="1" parent="1">
          <mxGeometry x="1313.75" y="3480" width="95" height="20" as="geometry" />
        </mxCell>
        <mxCell id="tzb5yaRrSsXEz6ic2CVl-309" value="Team 1" style="text;html=1;strokeColor=none;fillColor=none;align=center;verticalAlign=middle;whiteSpace=wrap;rounded=0;" vertex="1" parent="1">
          <mxGeometry x="1050" y="3510" width="110" height="20" as="geometry" />
        </mxCell>
        <mxCell id="tzb5yaRrSsXEz6ic2CVl-310" value="14" style="text;html=1;strokeColor=none;fillColor=none;align=center;verticalAlign=middle;whiteSpace=wrap;rounded=0;" vertex="1" parent="1">
          <mxGeometry x="1310" y="3510" width="110" height="20" as="geometry" />
        </mxCell>
        <mxCell id="tzb5yaRrSsXEz6ic2CVl-311" value="Team 3" style="text;html=1;strokeColor=none;fillColor=none;align=center;verticalAlign=middle;whiteSpace=wrap;rounded=0;" vertex="1" parent="1">
          <mxGeometry x="1050" y="3530" width="110" height="20" as="geometry" />
        </mxCell>
        <mxCell id="tzb5yaRrSsXEz6ic2CVl-312" value="11" style="text;html=1;strokeColor=none;fillColor=none;align=center;verticalAlign=middle;whiteSpace=wrap;rounded=0;" vertex="1" parent="1">
          <mxGeometry x="1310" y="3530" width="110" height="20" as="geometry" />
        </mxCell>
        <mxCell id="tzb5yaRrSsXEz6ic2CVl-313" value="Team 2" style="text;html=1;strokeColor=none;fillColor=none;align=center;verticalAlign=middle;whiteSpace=wrap;rounded=0;" vertex="1" parent="1">
          <mxGeometry x="1050" y="3550" width="110" height="20" as="geometry" />
        </mxCell>
        <mxCell id="tzb5yaRrSsXEz6ic2CVl-314" value="10" style="text;html=1;strokeColor=none;fillColor=none;align=center;verticalAlign=middle;whiteSpace=wrap;rounded=0;" vertex="1" parent="1">
          <mxGeometry x="1310" y="3550" width="110" height="20" as="geometry" />
        </mxCell>
        <mxCell id="tzb5yaRrSsXEz6ic2CVl-315" value="10" style="text;html=1;strokeColor=none;fillColor=none;align=center;verticalAlign=middle;whiteSpace=wrap;rounded=0;" vertex="1" parent="1">
          <mxGeometry x="1200" y="3510" width="40" height="20" as="geometry" />
        </mxCell>
        <mxCell id="tzb5yaRrSsXEz6ic2CVl-316" value="9" style="text;html=1;strokeColor=none;fillColor=none;align=center;verticalAlign=middle;whiteSpace=wrap;rounded=0;" vertex="1" parent="1">
          <mxGeometry x="1200" y="3530" width="40" height="20" as="geometry" />
        </mxCell>
        <mxCell id="tzb5yaRrSsXEz6ic2CVl-317" value="8" style="text;html=1;strokeColor=none;fillColor=none;align=center;verticalAlign=middle;whiteSpace=wrap;rounded=0;" vertex="1" parent="1">
          <mxGeometry x="1200" y="3550" width="40" height="20" as="geometry" />
        </mxCell>
        <mxCell id="tzb5yaRrSsXEz6ic2CVl-318" value="&lt;span&gt;11 goede antwoorden&lt;/span&gt;&lt;br&gt;&lt;span&gt;15 rondepunten&lt;/span&gt;" style="rounded=0;whiteSpace=wrap;html=1;fillColor=#dae8fc;strokeColor=#6c8ebf;" vertex="1" parent="1">
          <mxGeometry x="1200" y="3370" width="140" height="80" as="geometry" />
        </mxCell>
        <mxCell id="tzb5yaRrSsXEz6ic2CVl-319" value="&lt;font style=&quot;font-size: 16px&quot;&gt;Super cool team&lt;/font&gt;" style="text;html=1;strokeColor=none;fillColor=none;align=center;verticalAlign=middle;whiteSpace=wrap;rounded=0;" vertex="1" parent="1">
          <mxGeometry x="1192.5" y="3370" width="145" height="20" as="geometry" />
        </mxCell>
        <mxCell id="tzb5yaRrSsXEz6ic2CVl-320" value="" style="rounded=0;whiteSpace=wrap;html=1;" vertex="1" parent="1">
          <mxGeometry x="1680" y="1870" width="590" height="440" as="geometry" />
        </mxCell>
        <mxCell id="tzb5yaRrSsXEz6ic2CVl-321" value="scoreboard" style="text;html=1;strokeColor=none;fillColor=none;align=center;verticalAlign=middle;whiteSpace=wrap;rounded=0;" vertex="1" parent="1">
          <mxGeometry x="1680" y="1870" width="70" height="20" as="geometry" />
        </mxCell>
        <mxCell id="tzb5yaRrSsXEz6ic2CVl-322" value="&lt;font style=&quot;font-size: 24px&quot;&gt;Einde quiznight&lt;/font&gt;" style="text;html=1;strokeColor=none;fillColor=none;align=center;verticalAlign=middle;whiteSpace=wrap;rounded=0;" vertex="1" parent="1">
          <mxGeometry x="1882.5" y="1900" width="185" height="40" as="geometry" />
        </mxCell>
        <mxCell id="tzb5yaRrSsXEz6ic2CVl-323" value="Vraag 12/12" style="text;html=1;strokeColor=none;fillColor=none;align=center;verticalAlign=middle;whiteSpace=wrap;rounded=0;" vertex="1" parent="1">
          <mxGeometry x="2175" y="1920" width="75" height="20" as="geometry" />
        </mxCell>
        <mxCell id="tzb5yaRrSsXEz6ic2CVl-324" value="Quizronde 4" style="text;html=1;strokeColor=none;fillColor=none;align=center;verticalAlign=middle;whiteSpace=wrap;rounded=0;" vertex="1" parent="1">
          <mxGeometry x="2175" y="1900" width="75" height="20" as="geometry" />
        </mxCell>
        <mxCell id="tzb5yaRrSsXEz6ic2CVl-325" value="564125" style="text;html=1;strokeColor=none;fillColor=none;align=center;verticalAlign=middle;whiteSpace=wrap;rounded=0;" vertex="1" parent="1">
          <mxGeometry x="2175" y="1880" width="75" height="20" as="geometry" />
        </mxCell>
        <mxCell id="tzb5yaRrSsXEz6ic2CVl-341" value="&lt;font style=&quot;font-size: 16px&quot;&gt;Eerste plaats!&lt;br&gt;11 goede antwoorden&lt;br&gt;15 rondepunten&lt;br&gt;&lt;/font&gt;" style="rounded=0;whiteSpace=wrap;html=1;fillColor=#dae8fc;strokeColor=#6c8ebf;" vertex="1" parent="1">
          <mxGeometry x="1830" y="1950" width="300" height="230" as="geometry" />
        </mxCell>
        <mxCell id="tzb5yaRrSsXEz6ic2CVl-342" value="&lt;font style=&quot;font-size: 16px&quot;&gt;Super cool team&lt;/font&gt;" style="text;html=1;strokeColor=none;fillColor=none;align=center;verticalAlign=middle;whiteSpace=wrap;rounded=0;" vertex="1" parent="1">
          <mxGeometry x="1902.5" y="1950" width="145" height="20" as="geometry" />
        </mxCell>
        <mxCell id="tzb5yaRrSsXEz6ic2CVl-343" value="Home" style="rounded=1;whiteSpace=wrap;html=1;" vertex="1" parent="1">
          <mxGeometry x="2160" y="2270" width="90" height="30" as="geometry" />
        </mxCell>
        <mxCell id="tzb5yaRrSsXEz6ic2CVl-344" value="" style="endArrow=none;dashed=1;html=1;exitX=1;exitY=0.5;exitDx=0;exitDy=0;entryX=0;entryY=1;entryDx=0;entryDy=0;" edge="1" parent="1" source="tzb5yaRrSsXEz6ic2CVl-124" target="tzb5yaRrSsXEz6ic2CVl-127">
          <mxGeometry width="50" height="50" relative="1" as="geometry">
            <mxPoint x="740" y="2280" as="sourcePoint" />
            <mxPoint x="790" y="2230" as="targetPoint" />
          </mxGeometry>
        </mxCell>
        <mxCell id="tzb5yaRrSsXEz6ic2CVl-356" value="" style="rounded=0;whiteSpace=wrap;html=1;" vertex="1" parent="1">
          <mxGeometry x="970" y="2320" width="590" height="440" as="geometry" />
        </mxCell>
        <mxCell id="tzb5yaRrSsXEz6ic2CVl-357" value="scoreboard" style="text;html=1;strokeColor=none;fillColor=none;align=center;verticalAlign=middle;whiteSpace=wrap;rounded=0;" vertex="1" parent="1">
          <mxGeometry x="970" y="2320" width="70" height="20" as="geometry" />
        </mxCell>
        <mxCell id="tzb5yaRrSsXEz6ic2CVl-358" value="" style="rounded=0;whiteSpace=wrap;html=1;" vertex="1" parent="1">
          <mxGeometry x="1010" y="2540" width="530" height="180" as="geometry" />
        </mxCell>
        <mxCell id="tzb5yaRrSsXEz6ic2CVl-359" value="Team1" style="text;html=1;strokeColor=none;fillColor=none;align=center;verticalAlign=middle;whiteSpace=wrap;rounded=0;" vertex="1" parent="1">
          <mxGeometry x="1010" y="2540" width="100" height="20" as="geometry" />
        </mxCell>
        <mxCell id="tzb5yaRrSsXEz6ic2CVl-360" value="Team3" style="text;html=1;strokeColor=none;fillColor=none;align=center;verticalAlign=middle;whiteSpace=wrap;rounded=0;" vertex="1" parent="1">
          <mxGeometry x="1010" y="2560" width="100" height="20" as="geometry" />
        </mxCell>
        <mxCell id="tzb5yaRrSsXEz6ic2CVl-361" value="&lt;font style=&quot;font-size: 24px&quot;&gt;Vraag 1/12&lt;/font&gt;" style="text;html=1;strokeColor=none;fillColor=none;align=center;verticalAlign=middle;whiteSpace=wrap;rounded=0;" vertex="1" parent="1">
          <mxGeometry x="1198.75" y="2330" width="132.5" height="20" as="geometry" />
        </mxCell>
        <mxCell id="tzb5yaRrSsXEz6ic2CVl-362" value="&lt;font style=&quot;font-size: 18px&quot;&gt;Quizronde 1&lt;/font&gt;" style="text;html=1;strokeColor=none;fillColor=none;align=center;verticalAlign=middle;whiteSpace=wrap;rounded=0;" vertex="1" parent="1">
          <mxGeometry x="1203.75" y="2360" width="142.5" height="20" as="geometry" />
        </mxCell>
        <mxCell id="tzb5yaRrSsXEz6ic2CVl-363" value="564125" style="text;html=1;strokeColor=none;fillColor=none;align=center;verticalAlign=middle;whiteSpace=wrap;rounded=0;" vertex="1" parent="1">
          <mxGeometry x="1465" y="2330" width="75" height="20" as="geometry" />
        </mxCell>
        <mxCell id="tzb5yaRrSsXEz6ic2CVl-364" value="&lt;font style=&quot;font-size: 36px&quot;&gt;Wat is de hoofdstad van Frankrijk?&lt;/font&gt;" style="text;html=1;strokeColor=none;fillColor=none;align=center;verticalAlign=middle;whiteSpace=wrap;rounded=0;" vertex="1" parent="1">
          <mxGeometry x="970" y="2420" width="590" height="60" as="geometry" />
        </mxCell>
        <mxCell id="tzb5yaRrSsXEz6ic2CVl-365" value="&lt;font style=&quot;font-size: 18px&quot;&gt;Topografie&lt;/font&gt;" style="text;html=1;strokeColor=none;fillColor=none;align=center;verticalAlign=middle;whiteSpace=wrap;rounded=0;" vertex="1" parent="1">
          <mxGeometry x="990" y="2400" width="70" height="20" as="geometry" />
        </mxCell>
        <mxCell id="tzb5yaRrSsXEz6ic2CVl-366" value="Team2" style="text;html=1;strokeColor=#b85450;fillColor=#f8cecc;align=center;verticalAlign=middle;whiteSpace=wrap;rounded=0;" vertex="1" parent="1">
          <mxGeometry x="1010" y="2580" width="100" height="20" as="geometry" />
        </mxCell>
        <mxCell id="tzb5yaRrSsXEz6ic2CVl-367" value="Antwoorden" style="text;html=1;strokeColor=none;fillColor=none;align=center;verticalAlign=middle;whiteSpace=wrap;rounded=0;" vertex="1" parent="1">
          <mxGeometry x="1010" y="2490" width="70" height="20" as="geometry" />
        </mxCell>
        <mxCell id="tzb5yaRrSsXEz6ic2CVl-368" value="Parijs" style="text;html=1;strokeColor=#82b366;fillColor=#d5e8d4;align=center;verticalAlign=middle;whiteSpace=wrap;rounded=0;" vertex="1" parent="1">
          <mxGeometry x="1105" y="2540" width="435" height="20" as="geometry" />
        </mxCell>
        <mxCell id="tzb5yaRrSsXEz6ic2CVl-369" value="Parijs" style="text;html=1;strokeColor=#82b366;fillColor=#d5e8d4;align=center;verticalAlign=middle;whiteSpace=wrap;rounded=0;" vertex="1" parent="1">
          <mxGeometry x="1105" y="2560" width="435" height="20" as="geometry" />
        </mxCell>
        <mxCell id="tzb5yaRrSsXEz6ic2CVl-370" value="Trois-Ponts" style="text;html=1;strokeColor=#b85450;fillColor=#f8cecc;align=center;verticalAlign=middle;whiteSpace=wrap;rounded=0;" vertex="1" parent="1">
          <mxGeometry x="1110" y="2580" width="430" height="20" as="geometry" />
        </mxCell>
        <mxCell id="tzb5yaRrSsXEz6ic2CVl-371" value="Team1" style="text;html=1;strokeColor=#82b366;fillColor=#d5e8d4;align=center;verticalAlign=middle;whiteSpace=wrap;rounded=0;" vertex="1" parent="1">
          <mxGeometry x="1010" y="2540" width="100" height="20" as="geometry" />
        </mxCell>
        <mxCell id="tzb5yaRrSsXEz6ic2CVl-372" value="Team3" style="text;html=1;strokeColor=#82b366;fillColor=#d5e8d4;align=center;verticalAlign=middle;whiteSpace=wrap;rounded=0;" vertex="1" parent="1">
          <mxGeometry x="1010" y="2560" width="100" height="20" as="geometry" />
        </mxCell>
        <mxCell id="tzb5yaRrSsXEz6ic2CVl-373" value="" style="rounded=0;whiteSpace=wrap;html=1;" vertex="1" parent="1">
          <mxGeometry x="970" y="1350" width="590" height="440" as="geometry" />
        </mxCell>
        <mxCell id="tzb5yaRrSsXEz6ic2CVl-374" value="scoreboard" style="text;html=1;strokeColor=none;fillColor=none;align=center;verticalAlign=middle;whiteSpace=wrap;rounded=0;" vertex="1" parent="1">
          <mxGeometry x="970" y="1350" width="70" height="20" as="geometry" />
        </mxCell>
        <mxCell id="tzb5yaRrSsXEz6ic2CVl-375" value="&lt;font style=&quot;font-size: 32px&quot;&gt;Quizzer&lt;/font&gt;" style="text;html=1;strokeColor=none;fillColor=none;align=center;verticalAlign=middle;whiteSpace=wrap;rounded=0;" vertex="1" parent="1">
          <mxGeometry x="1172.5" y="1420" width="185" height="40" as="geometry" />
        </mxCell>
        <mxCell id="tzb5yaRrSsXEz6ic2CVl-377" value="Quiznightpin" style="rounded=0;whiteSpace=wrap;html=1;" vertex="1" parent="1">
          <mxGeometry x="1205" y="1510" width="120" height="30" as="geometry" />
        </mxCell>
        <mxCell id="tzb5yaRrSsXEz6ic2CVl-378" value="Starten" style="rounded=1;whiteSpace=wrap;html=1;fillColor=#d5e8d4;strokeColor=#82b366;" vertex="1" parent="1">
          <mxGeometry x="1215" y="1555" width="90" height="30" as="geometry" />
        </mxCell>
      </root>
    </mxGraphModel>
  </diagram>
</mxfile>
